<svg version="1.1" id="Layer_1" x="0px" y="0px" viewBox="0 0 193.3 129.7">
<style type="text/css">
	.st0{fill:#FFFFFF;}
	.st1{clip-path:url(#XMLID_2_);}
	.st2{opacity:0.15;fill-rule:evenodd;clip-rule:evenodd;fill:#E67E22;}
	.st3{opacity:0.8;fill-rule:evenodd;clip-rule:evenodd;fill:#E67E22;}
	.st4{fill-rule:evenodd;clip-rule:evenodd;fill:#FFBE76;}
	.st5{fill-rule:evenodd;clip-rule:evenodd;fill:#FFFFFF;}
	.st6{fill-rule:evenodd;clip-rule:evenodd;fill:#E67E22;}
	.st7{fill-rule:evenodd;clip-rule:evenodd;fill:#FFC7C0;}
	.st8{fill-rule:evenodd;clip-rule:evenodd;fill:#EC8D81;}
	.st9{fill-rule:evenodd;clip-rule:evenodd;fill:#FFE4E0;}
	.st10{fill-rule:evenodd;clip-rule:evenodd;fill:#331F5C;}
	.st11{fill-rule:evenodd;clip-rule:evenodd;fill:#CCCCCC;}
	.st12{clip-path:url(#SVGID_2_);}
	
		.st13{fill-rule:evenodd;clip-rule:evenodd;fill:none;stroke:#FFFFFF;stroke-width:2.04;stroke-linecap:round;stroke-linejoin:round;stroke-miterlimit:22.9256;}
	.st14{clip-path:url(#SVGID_4_);fill-rule:evenodd;clip-rule:evenodd;fill:#E6E6E6;}
	.st15{clip-path:url(#SVGID_6_);}
	.st16{fill-rule:evenodd;clip-rule:evenodd;fill:#281849;}
	.st17{fill-rule:evenodd;clip-rule:evenodd;fill:#FA6062;}
	.st18{fill-rule:evenodd;clip-rule:evenodd;fill:#FFDB4F;}
	.st19{fill-rule:evenodd;clip-rule:evenodd;fill:#FECE6C;}
	.st20{fill-rule:evenodd;clip-rule:evenodd;fill:#FFD787;}
	.st21{fill-rule:evenodd;clip-rule:evenodd;fill:#FFB642;}
	.st22{fill-rule:evenodd;clip-rule:evenodd;fill:#E6E6E6;}
	.st23{fill-rule:evenodd;clip-rule:evenodd;fill:#C4C4C6;}
	.st24{fill-rule:evenodd;clip-rule:evenodd;fill:#201140;}
	.st25{fill-rule:evenodd;clip-rule:evenodd;fill:#452B78;}
	.st26{fill-rule:evenodd;clip-rule:evenodd;fill:#FACE6D;}
	.st27{fill-rule:evenodd;clip-rule:evenodd;fill:#29183F;}
	.st28{fill-rule:evenodd;clip-rule:evenodd;fill:#382157;}
	
		.st29{fill-rule:evenodd;clip-rule:evenodd;fill:none;stroke:#EC8D81;stroke-width:0.8157;stroke-linecap:round;stroke-linejoin:round;stroke-miterlimit:22.9256;}
	
		.st30{fill-rule:evenodd;clip-rule:evenodd;fill:none;stroke:#29183F;stroke-width:0.8157;stroke-linecap:round;stroke-miterlimit:22.9256;}
	.st31{clip-path:url(#SVGID_8_);}
	.st32{fill:#E95F63;}
	.st33{fill:#FDFDFD;}
	.st34{fill:#FDD950;}
	.st35{fill:#32334F;}
	.st36{fill:#28293D;}
	.st37{fill:#ECF4FB;}
	.st38{fill:#D9EAF8;}
	.st39{fill:#E2EFF9;}
	.st40{fill:#F9FBFD;}
	.st41{fill:#C9E1F4;}
	.st42{fill:#D1E6F6;}
	.st43{fill:#B7D8F1;}
	.st44{fill:#C0DDF3;}
	.st45{fill:#A6D0EF;}
	.st46{fill:#9BCBED;}
	.st47{fill:#82C0E9;}
	.st48{fill:#F3F8FC;}
	.st49{fill:#AFD4F0;}
	.st50{fill:#8FC6EB;}
	.st51{fill:#75BBE7;}
</style>
<g id="BACKGROUND">
	<g>
		<rect x="0" y="0" class="st0" width="750" height="500"/>
	</g>
</g>
<g id="OBJECTS">
	<g>
		<defs>
			<path id="XMLID_33_" d="M750,24.71v450.59c0,13.65-10.63,24.71-23.72,24.71H23.72C10.63,500,0,488.94,0,475.29V24.71
				C0,11.06,10.63,0,23.72,0h702.55c6.34,0,12.09,2.58,16.34,6.8C747.17,11.31,750,17.66,750,24.71z"/>
		</defs>
		<use xlink:href="#XMLID_33_"  style="display:none;overflow:visible;fill:#F2F2F2;"/>
		<clipPath id="XMLID_2_">
			<use xlink:href="#XMLID_33_"  style="display:none;overflow:visible;"/>
		</clipPath>
		<g class="st1">
			<g>
				<path class="st2" d="M501.88-6.76h256.66V73.2c-25.75,37.85-67.69,62.49-115.07,62.49C567.66,135.69,505.74,72.6,501.88-6.76z"
					/>
				<path class="st3" d="M557.13-6.76h172.69c-3.77,47.06-40.98,84.01-86.35,84.01C598.11,77.25,560.89,40.3,557.13-6.76z"/>
			</g>
			<g>
				<g>
					<path class="st4" d="M758.54,134.5v371.65H102.88c27.22-14.97,65.53-31.37,109.91-37.07c0,0,48.38-99.73,172.01-82.64
						c0,0,0-79.79,51.07-88.34c0,0,13.44-37.04,45.69-14.25c0,0,20.75-37.32,70.85-18.66c-10.79-69.24,44.71-61.11,85.04-41.18
						c0,0,13.44-22.8,32.25-14.25C669.69,209.78,665.23,129.04,758.54,134.5z"/>
					<path class="st5" d="M758.54,134.5v15.37c-83,1.24-75.41,65.6-75.41,65.6c-36.47-2.91-40.32,22.8-40.32,22.8
						c-49.81-22.4-76.87-12.46-90.95,0.07c6.6-39.57,51.5-31.16,85.58-14.31c0,0,13.44-22.8,32.25-14.25
						C669.69,209.78,665.23,129.04,758.54,134.5L758.54,134.5z M212.78,469.09c0,0,48.38-99.73,172.01-82.64
						c0,0,0-79.79,51.07-88.34c0,0,10.77-29.69,36.18-19.54c-28.11,3.45-28.11,28.09-28.11,28.09
						c-59.7,17.1-48.38,94.04-48.38,94.04C266.53,389.3,212.78,469.09,212.78,469.09L212.78,469.09z M485.99,277.85
						c6.89-7.89,22.06-20.42,47.37-17.4C525.52,265.33,508.27,275.9,485.99,277.85z"/>
				</g>
				<g>
					<path class="st6" d="M758.54,211.93v294.22H621.79H363.94c0,0,26.21-59.78,96.11-39.92c0,0,8.06-39.89,48.38-22.8
						c-11.75-78.03,103.48-106.86,131.7-76.94c0,0,0-54.14,51.07-54.14c0,0-10.75-14.25,5.38-25.65
						C696.57,286.72,666.28,211.93,758.54,211.93z"/>
					<path class="st5" d="M758.54,211.93v12.6c-80.47,0.5-56.6,62.19-56.6,62.19c-16.13,17.1,2.69,34.19,2.69,34.19
						c-59.13,0-51.07,65.54-51.07,65.54s-13.44-14.25-74.92-8.12c-61.48,6.13-59.47,73.66-59.47,73.66
						c-48.38-11.4-45.69,28.5-45.69,28.5c-69.53-24.39-98.24,8.54-100.94,11.9c12.61-16.31,39.94-39.66,87.5-26.15
						c0,0,8.06-39.89,48.38-22.8c-11.75-78.03,103.48-106.86,131.7-76.94c0,0,0-54.14,51.07-54.14c0,0-10.75-14.25,5.38-25.65
						C696.57,286.72,666.28,211.93,758.54,211.93z"/>
				</g>
			</g>
			<g>
				<path class="st5" d="M589.27,363.66c-14.37,12.12-18.04,34.05-7.91,50.79c5.72,9.46,14.71,15.37,24.4,17.13
					C576.72,418.72,571.89,383.37,589.27,363.66z"/>
				<path class="st5" d="M461.97,147.3c-33.86,7.64-58.78,31.56-64.55,66.45c-5.77,34.88,14.22,70.61,47.51,87.38
					C376.35,255,394.33,174.25,461.97,147.3z"/>
				<path class="st5" d="M364.6,121.44c-13.31,7.43-20.49,20.64-16.19,30.6c2.43,5.63,8.04,9.09,15.01,10.05
					C344.04,154.66,347.5,133.47,364.6,121.44z"/>
			</g>
			<g>
				<g>
					<g>
						<path class="st7" d="M385.84,179.84c0,0-35.58-41.15-43.59-48.95c0,0-9.7-1.31-10.77-6.02c-1.07-4.71,3.24-3.31,3.24-3.31
							s-3.65-1.9-4.15-4.64c-0.5-2.74,2.97-3.74,2.97-3.74s-1.96-2.06-1.03-4.42c0.93-2.36,3.92-1.76,3.92-1.76s-1.51-3.13,0.93-5.1
							c2.43-1.97,9.3,3.94,9.3,3.94s4.45-5.63,8.37-1.02c2.86,3.37,4.65,12.99,4.65,12.99l41.74,37.65
							C386,167.5,385.84,179.84,385.84,179.84z"/>
						<path class="st8" d="M385.84,179.84l-2.21-2.55c2.04-6.11,6.8-15.09,17.8-21.83C386,167.5,385.84,179.84,385.84,179.84z"/>
					</g>
					<g>
						<path class="st8" d="M357.23,108.91c1.56,4.03,2.46,8.91,2.46,8.91c-5.84,3.32-8.1-0.68-8.1-0.68s-1.34,0.84-4.85,0.78
							c-3.52-0.06-4.86-2.94-4.86-2.94l1.92-0.74c0,0,4.94-6.54,5.25-6.59c0.31-0.06,6.72,0.28,6.72,0.28L357.23,108.91z"/>
						<path class="st7" d="M348.81,103.93c1.65-1.06,4.03-1.71,6.23,0.89c2.86,3.37,4.65,12.99,4.65,12.99
							c-4.61,1.64-7.25-0.6-8.82-5.93c0,0,0,0-2.12,2.51c-2.12,2.51-7.06,2.3-6.88,0.58c0.18-1.72,4.8-9.13,4.8-9.13L348.81,103.93z
							"/>
						<path class="st9" d="M341.93,114.68c0.32-1.21,1.8-3.89,3.03-5.99c0,0,1.36,4.02,0.28,5.24
							C344.66,114.58,343.18,114.71,341.93,114.68z"/>
					</g>
				</g>
				<g>
					<g>
						<g>
							<path class="st10" d="M489.33,315.79c11.76,15.64,27.8,40.4,43.12,51.39c24.4,17.5,91.49,50.49,91.49,50.49
								c4.4-4.52,5.29-11.13,5.37-15.16c-0.08-0.08-0.13-0.13-0.13-0.13l-5.26-3.85c-0.32,0.41-0.64,0.83-0.99,1.25
								c0,0-61.78-32.28-74.28-41.52c-10.97-8.1-22.82-32.33-32.93-53.71l-0.28,0.23l-0.45,0.37l-0.26,0.21
								c-0.18,0.14-0.37,0.29-0.55,0.43l-0.16,0.12c-0.21,0.16-0.43,0.33-0.65,0.48l-0.13,0.09c-0.22,0.16-0.44,0.31-0.66,0.46
								l-0.06,0.04l-0.04,0.03c-0.24,0.16-0.48,0.32-0.73,0.48l-0.05,0.03l-0.06,0.03c-0.25,0.16-0.5,0.31-0.75,0.46l-0.03,0.02
								l-0.03,0.02c-0.27,0.16-0.54,0.31-0.81,0.47l-0.02,0.01c-0.29,0.16-0.58,0.32-0.88,0.47l-0.37,0.18
								C502.64,312.25,495.33,314.74,489.33,315.79z"/>
							<path class="st11" d="M544.72,375.19c29.39,17.97,79.22,42.47,79.22,42.47c4.4-4.52,5.29-11.13,5.37-15.16
								c-0.08-0.08-0.13-0.13-0.13-0.13l-5.26-3.85c-0.32,0.41-0.64,0.83-0.99,1.25c0,0-61.78-32.28-74.28-41.52
								c-10.97-8.1-22.82-32.33-32.93-53.71C515.71,304.54,527.25,358.23,544.72,375.19z"/>
							<path class="st10" d="M574.2,334.04c13.41,14.42,54.67,42.19,55.69,45.55c1.13,3.74,4.41,12.08-3.91,22.3
								c0,0-65.6-34.96-77.33-43.63c-11.74-8.67-22.82-32.33-32.93-53.71c12.7-10.79,17.96-29.18,30.04-34.14
								c0.29-0.06,0.56-0.12,0.82-0.18h0c4.38,6.98,7.53,16.14,10.53,25.52C560.1,305.13,574.2,334.04,574.2,334.04z"/>
							<g>
								<defs>
									<path id="SVGID_1_" d="M574.2,334.04c13.41,14.42,54.67,42.19,55.69,45.55c1.13,3.74,4.41,12.08-3.91,22.3
										c0,0-65.6-34.96-77.33-43.63c-11.74-8.67-22.82-32.33-32.93-53.71c12.7-10.79,17.96-29.18,30.04-34.14
										c0.29-0.06,0.56-0.12,0.82-0.18h0c4.38,6.98,7.53,16.14,10.53,25.52C560.1,305.13,574.2,334.04,574.2,334.04z"/>
								</defs>
								<clipPath id="SVGID_2_">
									<use xlink:href="#SVGID_1_"  style="overflow:visible;"/>
								</clipPath>
								<g class="st12">
									<path class="st13" d="M535.3,281.02c0,0,2.27,16.17,17.26,12.36"/>
								</g>
							</g>
						</g>
						<g>
							<defs>
								<path id="SVGID_3_" d="M574.2,334.04c7.71,8.29,24.62,20.99,37.8,30.93c0,0-33.69-12.71-39.07-15.56
									c-5.38-2.85-19.37-47.02-19.37-47.02l6.26,0.46C564.94,315.04,574.2,334.04,574.2,334.04z"/>
							</defs>
							<clipPath id="SVGID_4_">
								<use xlink:href="#SVGID_3_"  style="overflow:visible;"/>
							</clipPath>
							<rect x="553.57" y="302.39" class="st14" width="58.43" height="62.58"/>
						</g>
						<g>
							<defs>
								<path id="SVGID_5_" d="M574.2,334.04c7.71,8.29,24.62,20.99,37.8,30.93c0,0-33.69-12.71-39.07-15.56
									c-5.38-2.85-19.37-47.02-19.37-47.02l6.26,0.46C564.94,315.04,574.2,334.04,574.2,334.04z"/>
							</defs>
							<clipPath id="SVGID_6_">
								<use xlink:href="#SVGID_5_"  style="overflow:visible;"/>
							</clipPath>
							<g class="st15">
								<path class="st13" d="M535.3,281.02c0,0,2.27,16.17,17.26,12.36"/>
							</g>
						</g>
					</g>
					<path class="st8" d="M625.3,416.05l3.92,2.25l3.03,1.74c2.07,1.02,3.99,0.95,5.36-0.72c-0.37-0.65-0.75-1.3-1.14-1.98
						c-1.82-3.16-4.19-7.22-5.82-10.06c-0.66-1.16-1.18-2.62-1.38-3.88C629.1,406.97,628.27,412.03,625.3,416.05L625.3,416.05z
						 M629.52,402.71c-0.06-0.14-0.11-0.28-0.16-0.42c-0.02-0.01-0.04-0.02-0.05-0.03l0,0.24
						C629.36,402.56,629.43,402.63,629.52,402.71z"/>
					<g>
						<path class="st7" d="M626.89,400.7l2.29,1.68c0,0,6.7,6.84,10.51,5.04c4-1.9,4.05-15.24-0.48-18.83l-1.77-1.34l-6.77-5.05
							C631.79,386.36,632.63,392.94,626.89,400.7z"/>
						<path class="st8" d="M626.89,400.7l2.29,1.68c0,0,1.28,1.31,3.04,2.63c0.18,0.12,0.32,0.22,0.4,0.29
							c2.42-3.42,2.03-12-1.95-23.1C631.79,386.36,632.63,392.94,626.89,400.7z"/>
					</g>
					<g>
						<path class="st16" d="M648.55,447.1c-2.86-3.59-11.34-16.64-15.02-22.37c-1.02-1.59-1.64-3.3-1.91-5.06l0.63,0.36
							c2.07,1.02,3.99,0.95,5.36-0.72l-0.04-0.07c1.99,3.44,3.81,6.54,5.5,9.19c0.25,0.39,0.5,0.76,0.75,1.12l0.01,0.01
							c0.12,0.17,0.25,0.34,0.38,0.51l0.01,0.01c0.13,0.16,0.25,0.32,0.38,0.48l0.02,0.02c0.12,0.15,0.25,0.3,0.37,0.44l0.03,0.03
							c0.12,0.14,0.24,0.27,0.36,0.4l0.05,0.05c0.11,0.12,0.23,0.24,0.34,0.36l0.07,0.07c0.1,0.1,0.21,0.2,0.31,0.3l0.11,0.1
							c0.1,0.09,0.19,0.18,0.29,0.27l0.12,0.11c0.09,0.08,0.17,0.15,0.26,0.22c0.05,0.05,0.11,0.09,0.16,0.14h0l0,0
							c0.07,0.07,0.15,0.14,0.23,0.21l0.06,0.05c0.08,0.07,0.15,0.14,0.23,0.2l0.02,0.02c0.07,0.06,0.15,0.12,0.22,0.18l0.07,0.05
							c0.08,0.06,0.16,0.12,0.24,0.18l0.05,0.04c0.07,0.05,0.14,0.1,0.21,0.14l0.07,0.05c0.08,0.06,0.16,0.11,0.24,0.16l0.07,0.04
							c0.07,0.04,0.14,0.09,0.21,0.13l0.07,0.04c0.08,0.05,0.17,0.09,0.25,0.14l0.09,0.05c0.07,0.04,0.15,0.08,0.22,0.11l0.05,0.03
							c0.09,0.04,0.18,0.09,0.27,0.13l0.09,0.04c0.08,0.04,0.16,0.07,0.24,0.1l0.08,0.03c0.08,0.03,0.16,0.06,0.24,0.09l0.1,0.04
							c0.08,0.03,0.16,0.06,0.24,0.08l0.11,0.04c0.07,0.02,0.13,0.04,0.2,0.06l0.11,0.03c0.09,0.03,0.17,0.05,0.26,0.07
							c0.04,0.01,0.08,0.02,0.12,0.03l0.17,0.04l0.13,0.03c0.08,0.02,0.16,0.03,0.24,0.05l0.15,0.03l0.14,0.03
							c0.07,0.01,0.14,0.02,0.21,0.03l0.17,0.02l0.16,0.02l0.13,0.01c0.11,0.01,0.21,0.02,0.32,0.03l0.06,0.01
							c0.06,0,0.13,0.01,0.19,0.01l0.09,0c0.11,0,0.23,0.01,0.35,0h0.05c0.07,0,0.14,0,0.21,0h0.01c0.13,0,0.27-0.01,0.4-0.02
							l0.05,0c0.21-0.02,0.43-0.04,0.64-0.07l0.01,0c0.22-0.03,0.43-0.07,0.64-0.12l0.01,0c1.42-0.33,2.73-1.02,3.76-2.13
							c0.58,1.79,1.34,4.12,1.92,5.98C665.73,451.76,653.18,452.91,648.55,447.1z"/>
						<path class="st5" d="M657.85,435.19c0.79-0.38,1.52-0.89,2.14-1.56c0.58,1.79,1.34,4.12,1.92,5.98
							c3.21,10.25-5.21,12.68-10.7,9.7c2.04,0.63,3.9,0.58,5.4,0.01c1.82-0.69,3.14-2.12,3.69-3.98
							C661.16,442.45,657.85,435.19,657.85,435.19z"/>
					</g>
					<g>
						<path class="st10" d="M637.44,387.25c0,0,7.27-0.63,10.71,5.5c1.68,3.13,2.39,7.7,4.13,11.57c2.95,6.56,6.75,12.79,7.84,18.71
							c2.3,12.49-9.06,17.93-17.05,5.41c-2-3.13-4.18-6.9-6.6-11.1c-1.82-3.16-4.19-7.22-5.82-10.06c-0.85-1.49-1.46-3.46-1.48-4.9
							c0,0,6.7,6.84,10.51,5.04c4-1.9,4.05-15.24-0.48-18.83L637.44,387.25z"/>
						<path class="st5" d="M647.09,433.1c5.36,5.24,17.03,3.99,14.96-9.21c-1.18-7.56-6.21-16.21-8.29-22.22
							c-2.08-6.01-2.58-14.06-13.64-14.26l0,0c2.43,0.39,5.93,1.62,8.02,5.35c1.68,3.13,2.39,7.7,4.13,11.57
							c2.95,6.56,6.75,12.79,7.84,18.71C662.06,433.53,654.35,439.04,647.09,433.1L647.09,433.1z"/>
					</g>
					<g>
						<path class="st17" d="M649.62,396.39c-0.04-0.11-0.07-0.22-0.11-0.34C649.54,396.16,649.58,396.27,649.62,396.39
							L649.62,396.39z M657.37,410.21c1.49,3.44,6.31,4.73,20.55,6.54c0,0-11.07-18.97-26.17-21.46c0.8,2.11,1.32,4.36,2.02,6.38
							C654.62,404.15,655.98,407.08,657.37,410.21z"/>
						<path class="st18" d="M652.51,397.56c2.77,0.85,9.95,3.78,16.48,12.55c0,0-5.94,3.18-12.84-2.63
							c-0.94-2.1-1.79-4.07-2.39-5.81C653.31,400.36,652.94,398.96,652.51,397.56L652.51,397.56z M651.47,402.28L651.47,402.28
							l-0.01-0.03L651.47,402.28L651.47,402.28z M650.99,400.86c0.04,0.13,0.09,0.26,0.13,0.39
							C651.07,401.12,651.03,400.99,650.99,400.86z"/>
						<path class="st5" d="M655.47,405.92c-0.66-1.52-1.25-2.95-1.7-4.25c-0.18-0.53-0.35-1.08-0.52-1.63
							c2.03,1,4.66,2.75,7.83,5.79C661.07,405.82,658.58,406.15,655.47,405.92L655.47,405.92z M651.47,402.27L651.47,402.27
							l-0.01-0.02L651.47,402.27L651.47,402.27z M650.99,400.86c0.04,0.13,0.09,0.26,0.13,0.39
							C651.07,401.12,651.03,400.99,650.99,400.86z"/>
					</g>
					<g>
						<path class="st17" d="M661.44,421.01c2.38,1.11,5.62,1.77,10.7,7.85c5.07,6.08,18.07,25.38,18.07,25.38
							c-8.04-2.14-20.38-5.53-27.73-12.24c-0.11-0.75-0.3-1.54-0.57-2.4c-0.58-1.85-1.34-4.19-1.92-5.97
							c1.81-1.92,2.79-5.09,2.06-9.74C661.9,422.95,661.7,421.99,661.44,421.01z"/>
						<path class="st18" d="M677.39,444.17c-1.24-1.78-2.48-3.56-3.72-5.33c-2.63-3.73-5.39-7.73-8.3-11.22
							c-0.99-1.19-2.08-2.37-3.27-3.4c0.63,4.47-0.34,7.54-2.11,9.42c0.19,0.57,0.39,1.19,0.6,1.83
							C664.89,439.4,671.38,442.17,677.39,444.17z"/>
						<path class="st5" d="M662.29,426.96c-0.02,2.92-0.86,5.06-2.16,6.53c1.84,1.27,4.51,2.69,7.46,2.84
							C667.59,436.32,665.92,430.98,662.29,426.96z"/>
					</g>
					<g>
						<path class="st17" d="M678.49,450.73c-5.8-2.06-11.74-4.83-16-8.72c0.84,5.49-2.23,8.12-5.86,8.44
							c3.71,9.69,29.16,18.32,37.25,18.64C693.88,469.09,682.37,454.16,678.49,450.73L678.49,450.73z M661.92,439.61
							c0.03,0.11,0.07,0.22,0.1,0.33C661.99,439.83,661.95,439.72,661.92,439.61L661.92,439.61z M662.02,439.94
							c0.03,0.1,0.06,0.19,0.08,0.29C662.08,440.13,662.05,440.04,662.02,439.94z"/>
						<path class="st18" d="M662.48,441.95c0.68,4.32-1.05,6.88-3.58,7.95c2.58,2.01,5.32,3.75,7.17,4.83
							c3.46,2.02,7.16,3.85,10.89,5.24c0.32,0.12,0.7,0.26,1.11,0.4c0-0.01-0.01-0.02-0.01-0.02c-1.44-2.67-3.93-7.81-6.47-12.47
							c-3.37-1.62-6.53-3.55-9.09-5.88L662.48,441.95z"/>
						<path class="st5" d="M662.48,441.95c0.38,2.41,0.01,4.27-0.83,5.63c1.15,1.08,3.5,2.78,8.04,4.41c0,0-0.36-2.81-1.61-5.95
							c-2.05-1.19-3.95-2.53-5.6-4.04L662.48,441.95z"/>
					</g>
				</g>
				<g>
					<g>
						<path class="st19" d="M554.51,298.69l37.24-42.3c1.05-1.19,2.83-1.26,3.96-0.15l17.93,17.79l9.43,9.35
							c1.12,1.12,1.19,3,0.14,4.2l-37.24,42.3c-1.05,1.19-2.83,1.26-3.96,0.15l-27.36-27.14
							C553.52,301.77,553.46,299.88,554.51,298.69z"/>
						<path class="st20" d="M590.94,257.3l0.8-0.91c1.05-1.19,2.83-1.26,3.96-0.15l17.93,17.79l9.43,9.35c1.12,1.12,1.19,3,0.14,4.2
							l-37.24,42.3c-1.05,1.19-2.83,1.26-3.96,0.14l-1.74-1.73c3.5-1.59,8.51-5.35,13.4-14.21c8.83-15.98,0.63-27.27,4.72-35.06
							C601.33,273.43,594.83,262.82,590.94,257.3z"/>
						<path class="st21" d="M553.99,299.53L553.99,299.53c-0.45,1.12-0.23,2.48,0.66,3.35l25.11,24.84l-5.92,6.73
							c-1.05,1.19-3.23,1.58-3.96,0.15l-15.74-30.87C553.39,302.29,552.94,300.73,553.99,299.53L553.99,299.53z M584.16,265
							l0.02-0.03l0.01-0.01L584.16,265z"/>
						<polygon class="st22" points="554.65,302.89 573.57,335.97 580.22,328.26 						"/>
						<polygon class="st5" points="555.29,303.52 577.4,335.68 581.96,329.99 						"/>
					</g>
					<path class="st5" d="M454.16,181.54c0,0,33.13-8,49.13,2.21c16,10.21,34.31,31.01,34.31,31.01s1.81,14.64-12.65,20.43
						l-14.22-11.28c0,0,4.07,8.1,16.39,19.64c12.32,11.54,25.51,25.14,21.56,25.96c-16.33,3.39-20.58,29.76-39.58,39.49
						c-10.88,5.57-25.87,9.31-30.24,6.22c-2.65-1.87-5.68-19.01-16.19-34.41c-11.51-16.87-27.15-35.06-34.29-48.27
						c-13.65-25.28-42.56-52.69-42.56-52.69s0.17-12.34,15.59-24.38l14.63,13.73C419.4,174.76,447.39,183.72,454.16,181.54z"/>
					<path class="st22" d="M419.51,218.44c-3.86-5.43-8.05-10.71-12.12-15.53c1.01-8.98,4.5-15.43,5.44-21.96
						c0.92-6.44-0.19-12.36-1.14-15.86l4.36,4.09c1.31,2.17,6.37,4.87,12.46,7.21c0.8,3.55,1.44,6.51,1.44,6.51l-0.95,4.16
						c-0.33,0.04-0.66,0.07-0.99,0.09c-0.3,0.02-0.6,0-0.92-0.03C420.47,192.79,417.81,206.07,419.51,218.44L419.51,218.44z
						 M428.96,187.27c-0.43,1.13-0.8,2.55-0.99,4.3L428.96,187.27z"/>
					<path class="st23" d="M510.75,223.91c0.06,0.12,4.16,8.19,16.38,19.64c12.32,11.54,25.51,25.14,21.56,25.96
						c-14.58,3.03-19.54,24.39-33.97,35.85v0c8.98-9.86,15.34-18.72,7.15-32.89c-4.01-6.93-5.38-12.54-6.44-18.02
						c-18.62-3.79-29.39-18-29.39-18c-1.07,0.71-2.49,0.37-3.17-0.76l-6.13-10.3c-0.67-1.13-0.35-2.65,0.72-3.36l11.66-7.8
						c1.07-0.71,2.49-0.37,3.17,0.76l6.13,10.3c0.67,1.13,0.35,2.64-0.72,3.36l-6.76,4.52l22.01,9.83c-0.62-2.11-1.4-4.31-2.45-6.65
						c-6-13.32-15.51-26.57-15.51-26.57L510.75,223.91L510.75,223.91z"/>
					<path class="st5" d="M451.26,179.55c0,0,3.04-1.36,6.28,5.33c3.24,6.69-0.08,19.42-2.86,25.65c0,0-5.43-10.36-11.39-8.71
						c0,0-5.47,4.33-3.82,12.06c1.65,7.73-10.34-6.59-11.45-16.69c-0.51-4.69,0.15-7.97,1.01-10.14c0.31-0.04,0.62-0.09,0.94-0.14
						l-0.06,0.01c0.64,7.71,2.96,17.11,11.29,15.67c8.33-1.44,11.18-20.51,11.18-20.51C451.97,181.27,451.6,180.42,451.26,179.55z"
						/>
					<path class="st10" d="M447.65,216.52c0.94-0.13,1.81,0.58,1.93,1.58c0.12,1-0.55,1.92-1.49,2.04
						c-0.94,0.13-1.81-0.58-1.93-1.58C446.04,217.56,446.71,216.65,447.65,216.52z"/>
					<path class="st10" d="M452.04,227.01c0.94-0.13,1.81,0.58,1.93,1.58c0.12,1-0.55,1.92-1.49,2.04
						c-0.94,0.13-1.81-0.58-1.93-1.58C450.43,228.05,451.09,227.13,452.04,227.01z"/>
					<path class="st10" d="M457.73,237.17c0.94-0.13,1.81,0.58,1.93,1.58c0.12,1-0.55,1.92-1.49,2.04
						c-0.94,0.13-1.81-0.58-1.93-1.58C456.12,238.21,456.79,237.3,457.73,237.17z"/>
					<g>
						<path class="st10" d="M450.34,176.92c2.31-2.29,6.08-5,12.2-7.48c6.48-2.63,12-4,17.35-3.84c6.46,0.19,12.66,2.62,19.98,7.77
							c8.78,6.18,31.51,33.59,46.24,51.52c7.67,9.33,13.34,15.9,13.4,15.98l-21.89-26.11c0,0-21.35-22.36-34.31-31.01
							c-11.59-7.74-41.77-3.4-47.99-2.4c-2.27-2.59-4.04-1.8-4.05-1.8C450.92,178.68,450.61,177.8,450.34,176.92L450.34,176.92z
							 M549.28,257.17c-13.03-13.02-24.32-21.98-24.32-21.98l-14.22-11.28c0,0,4.07,8.1,16.39,19.64c6.37,5.97,12.85,12.14,17.14,17
							C546.13,259.65,547.79,258.49,549.28,257.17z"/>
						<path class="st24" d="M495.56,180.68c-13.86-3.22-35.14-0.15-40.26,0.67c-0.97-1.1-1.84-1.59-2.53-1.79
							c3.37-1.71,8.48-3.53,15.89-4.64C479,173.37,489.31,177.44,495.56,180.68z"/>
						<path class="st25" d="M480.44,165.62c2.82-2.43,8.52-6.72,13.53-6.77c7-0.07,24.69,20.66,24.24,22.14
							c-0.44,1.48-2.2,4.29-5.07,5.22c-5.52-5.93-10.24-10.7-13.29-12.84C492.75,168.37,486.7,165.94,480.44,165.62z"/>
						<path class="st25" d="M518.04,191.65c1.54-2.25,4.87-5.58,10.36-4.79c0,0,15.79,20.88,17.09,25.92
							c1.3,5.04,1.13,8.7,0.72,12.25C538.08,215.12,518.04,191.65,518.04,191.65z"/>
						<path class="st24" d="M549.28,257.17c-1.49,1.32-3.15,2.48-5,3.38c-4.29-4.86-10.77-11.03-17.14-17
							c-12.32-11.54-16.39-19.64-16.39-19.64l14.22,11.28C524.96,235.19,536.25,244.15,549.28,257.17z"/>
						<path class="st26" d="M528.38,198.03l3.19-2.36c0,0,9.67,13.58,8.34,14.66C538.57,211.4,528.38,198.03,528.38,198.03z"/>
					</g>
					<path class="st22" d="M571.19,279.85c0,0,6.48,11.2,5.85,18.1c22.77-8.38,6.2-31.9,6.2-31.9L571.19,279.85z"/>
					<path class="st7" d="M524.96,235.19c0,0,20.49,18.21,36.67,35.13l5.02,14.57l4.54-5.05c0,0,3.76,2.77,5.89,9.48
						c2.38,7.5,5.07,2.12,5.07,0.66c0,0,3.38,0.75,3.44-3.09c3.46-0.71,2.13-3.02,0.71-7.33c0,0,2.1,1.41,3.02-0.32
						c0.92-1.73-3.23-10.09-6.54-13.73c-3.31-3.64-8.91-7.5-8.91-7.5l-36.26-43.25C537.61,214.76,539.42,229.4,524.96,235.19z"/>
					<path class="st8" d="M524.96,235.19c0,0,1.37,1.22,3.69,3.32l0.19-0.12c13.72-8.86,8.77-23.63,8.77-23.63
						S539.42,229.4,524.96,235.19z"/>
					<path class="st8" d="M586.3,279.57c0,0,0.78,0.52,1.59,0.54c-1.86-3.3-4.49-7.39-7.24-9.75
						C580.65,270.37,583.39,273.68,586.3,279.57z"/>
					<path class="st8" d="M585.59,286.9c0.38-0.08,0.7-0.17,0.97-0.29c-1.29-3.27-3.45-7.58-6.93-11.78
						C579.63,274.83,583.52,281.32,585.59,286.9z"/>
					<path class="st8" d="M582.15,289.99c0,0,0.55,0.12,1.2,0.02c-2.09-7.76-7.28-13.75-7.28-13.75
						C578.74,279.86,582.15,289.99,582.15,289.99z"/>
					<path class="st10" d="M429.36,202.44c0.31,0.86-1.25,3.23-1.85,8.43c-1.36,11.69,2.95,24.46,7.82,32.67
						c-19.08-6.9-20.9-45.59-8.24-56.42c0.32,0.04,0.62,0.05,0.92,0.03c0.34-0.02,0.68-0.05,1.03-0.09
						c-0.86,2.17-1.53,5.45-1.01,10.14C428.21,198.87,429.36,202.44,429.36,202.44z"/>
					<path class="st8" d="M567.35,284.12c0,0-0.55-10.8-0.32-10.21c0.24,0.6,4.16,5.93,4.16,5.93S567.35,284.11,567.35,284.12z"/>
					<path class="st11" d="M443.29,201.83c0,0,5.04-1.47,10.5,12.34c0,0,5.92-6.09,5.06-23.25l0,0c0.28,6.68-2.09,14.97-4.17,19.62
						C454.68,210.54,449.25,200.18,443.29,201.83z"/>
					<path class="st11" d="M443.23,201.88c-0.55,0.48-4.59,4.58-1.16,17.57c0,0-6.76-3.18-10.99-13.15h0
						c3.8,7.4,9.57,13.11,8.4,7.59C437.93,206.64,442.64,202.38,443.23,201.88z"/>
					<path class="st11" d="M435.33,243.55c0,0-5.98-11.9-6.35-22.64c-0.25-7.43,1.15-12.39,2.04-14.74
						c-0.62-1.21-1.18-2.47-1.65-3.73l0,0c0.31,0.86-1.25,3.23-1.85,8.43C426.15,222.57,430.46,235.33,435.33,243.55z"/>
					<path class="st10" d="M526.58,243.04c-14.73,1.54-25.43-8.75-32.3-19.74c-2.05-3.28-3.48-5.77-4.64-8.19
						c-1.68-3.49-2.81-6.86-4.47-12.3c-5.48-17.97-0.37-24.1-0.37-24.1c-2.14-4.03-10.97-3.71-14.18,0.28c0,0-2.96,8.54,0.92,22.4
						c2.44,8.71,7.74,21.03,13.11,28.35c11.7,15.93,29.33,26.26,49.44,20.42C534.1,250.15,532.56,243.69,526.58,243.04z"/>
					<path class="st26" d="M476.94,219.12l11.63-7.78c1.08-0.72,2.51-0.38,3.18,0.75l6.13,10.31c0.67,1.13,0.35,2.65-0.73,3.37
						l-11.63,7.78c-1.08,0.72-2.51,0.38-3.18-0.75l-6.13-10.3C475.54,221.35,475.87,219.84,476.94,219.12z"/>
					<path class="st10" d="M479.7,221.62c0.83,1.55,2.29,4.49,4.96,8.12c3.21-2.15,6.42-4.29,9.63-6.44
						c-1.65-2.7-3.26-5.37-4.64-8.19C486.43,217.25,482.91,219.47,479.7,221.62z"/>
				</g>
				<g>
					<path class="st8" d="M448.83,170.48c0.55,3.25,1.61,7.76,3.56,11.61c0,0-2.85,19.07-11.18,20.51
						c-8.33,1.44-10.65-7.96-11.29-15.67C437.88,185.55,446.32,178.55,448.83,170.48z"/>
					<path class="st7" d="M433.19,141.48L433.19,141.48c10.22-0.59,19.03,7.79,19.58,18.62l0.54,10.5c1.36-1.79,4.41-2.1,5.38,0.32
						c0.7,1.76,0.52,4.79-1.65,7.85c-0.86,1.21-2.99,1.69-4.19,1.58c-2.44,8.62-11.1,15.94-20.88,16.49
						c-5.17,0.29-11.06-6.33-13.28-13.2c-2.36-7.3-2.8-15.96-3.07-21.39C415.07,151.42,422.97,142.07,433.19,141.48z"/>
					<path class="st8" d="M415.76,164.77c-0.05-0.9-0.09-1.75-0.13-2.53l-0.02-0.44c7.55,3.23,17.74,4.06,24.55,2.41
						C429.64,167.12,420.48,165.86,415.76,164.77L415.76,164.77z M442.38,163.55L442.38,163.55l-0.01,0.01L442.38,163.55z"/>
					<path class="st27" d="M446.53,160.82c-5.7,7.35-34.12,5.06-39.91-6.33c-4.58-9.02-2.29-23.17,10.72-23.19
						c-14.22,5.84-9.02,17.79-9.02,17.79l0,0c-2.81-18.67,23.13-16.4,27.42-9.22c4.87-1.85,8.66,0.47,10.58,5.81
						c0.3,0.83,3.35-0.32,4.48,6.63c0,0,3.23-2.14,5.37,3.62c2.14,5.77,0.67,10.34,0.74,13.36c-1.25-0.34-2.76,0.2-3.61,1.31
						c0,0-1.63,2.58-2.52,3.69C449.41,175.99,445.86,163.66,446.53,160.82z"/>
					<path class="st28" d="M412.89,137.02c7.11-4.62,19.94-2.01,22.85,2.85c4.87-1.85,8.66,0.47,10.58,5.81
						c0.3,0.83,3.35-0.32,4.48,6.63c0,0,3.23-2.14,5.37,3.62c0.9,2.42,1.16,4.64,1.17,6.61c-1.46-12.5-7.86-8.61-7.86-8.61
						c0-5.57-4.14-5.71-4.14-5.71c0.54-2.52-4.83-8.49-10.5-4.65C434.52,135.52,420.58,132.76,412.89,137.02z"/>
					<path class="st29" d="M427.79,169.97c0,0-0.4,5.54-1.66,7.04c0,0,0.26,2.02,3,1.1"/>
					<path class="st30" d="M432.27,169.92c0,0,0.2-1.58,1.87-1.71c1.66-0.13,2.24,1.33,2.24,1.33"/>
					<path class="st5" d="M436.99,179.72c-1.92,4.47-7.03,3.19-7.03,3.19s1.74,3.62,5.12,2.39
						C438.46,184.06,436.99,179.72,436.99,179.72z"/>
					<path class="st30" d="M420.4,170.3c0,0,0.2-1.58,1.87-1.71c1.66-0.13,2.24,1.33,2.24,1.33"/>
					<path class="st29" d="M452.77,177.33c0,0,0.23-5.62,4.11-5.6"/>
				</g>
				<g>
					<g>
						<defs>
							<path id="SVGID_7_" d="M772.48,490.56l-111.72-71.87l0,0c-0.67-2.04-1.49-4.1-2.35-6.11l0,0L772.48,490.56z"/>
						</defs>
						<clipPath id="SVGID_8_">
							<use xlink:href="#SVGID_7_"  style="overflow:visible;"/>
						</clipPath>
						<g class="st31">
							<path class="st32" d="M672.43,428.9c5.01,6.7,10.16,13.29,14.9,20.18c0.9,1.3,3.64,2.76,2.06,4.69
								c-1.21,1.49-3.45,0.62-5.18-0.42c-0.46-0.28-1.21-0.04-3.14-0.04c4.83,5.7,10.36,9.82,13.42,16.41
								c-13.38-2.15-25.59-6.36-35.91-15.32c0-1.29,0-2.57,0-3.86c3.31-1.39,5.42,1.37,7.78,2.66c2.37,1.29,4.72,2.38,8.17,3.71
								c-1.91-3.74-2.56-7.1-6.16-8.36c-3.93-2.59-8.37-4.81-7.68-10.82c5.17-2.75,8.07,3.15,12.24,3.13
								c-3.33-5.51-7.95-10.45-11.97-15.88c-0.79-3.99,1.76-4.43,4.32-3.57C668.78,422.58,672.17,424.32,672.43,428.9z"/>
							<path class="st33" d="M672.43,428.9c-2.73-2.16-5.28-4.65-8.27-6.35c-1.87-1.06-3.14-0.03-1.58,2.28
								c1.59,2.68,3.63,5.03,5.28,7.66c0.98,1.56,2.53,3.08,1.08,5.05c-1.47,2.01-3.2,1.19-4.87,0.12
								c-0.91-0.58-1.85-0.89-2.76,0.03c1.22,4.66,4.7,7.11,8.57,9.19c1.04,1.93,3.36,3.87,1.41,6.14
								c-2.19,2.54-4.57,0.37-6.65-0.73c-2-1.06-4.12-1.85-6.05-3.04c0-0.43,0-0.86,0-1.29c1.01-3,1.01-6,0-9c0-2.14,0-4.28,0-6.43
								c1.3-3.86,0.99-7.71,0-11.57c0.74-2.52-1.47-5.53,1.26-7.71c1.46,1.63,4.89,0.73,5.03,4.07c3.58,3.23,8.28,4.92,11.45,8.71
								c0.11,1.24-0.24,2.25-1.43,2.8C674.08,428.87,673.26,428.89,672.43,428.9z"/>
							<path class="st34" d="M658.6,449.26c4.82-2.04,7.47,3.45,11.82,3.52c1.23-2.07-1.27-3.87-0.52-5.9
								c4.78,2.93,6.41,8,9.05,13.49c-8.5-0.9-14.04-6.23-20.35-9.84C658.6,450.11,658.6,449.68,658.6,449.26z"/>
							<path class="st32" d="M664.89,417.34c-1.58-1.49-4.3-1.49-5.03-4.07c5.45,0,10.9,0,16.35,0c0.78,1.67,1.56,3.34,2.44,5.22
								C673.83,419.12,669.41,417.55,664.89,417.34z"/>
							<path class="st35" d="M658.6,420.98c1.98,3.86,2.79,7.71,0,11.57C658.6,428.69,658.6,424.84,658.6,420.98z"/>
							<path class="st36" d="M658.6,438.97c2.07,3,2.07,6,0,9C658.6,444.97,658.6,441.97,658.6,438.97z"/>
							<path class="st37" d="M687.41,436.48c-2.53-0.55-4.87-1.43-6.31-3.85c0.52-1.3,1.32-2.03,2.78-1.43
								c2.72,0.22,4.16,2.63,6.28,3.87C689.65,436.36,688.84,437.06,687.41,436.48z"/>
							<path class="st38" d="M698.81,444.24c-2.13-1.3-4.25-2.6-6.38-3.91c0.14-1.61,1.29-2.1,2.58-2.44
								c1.72,1.18,3.44,2.36,5.17,3.54C700.74,442.89,700.09,443.72,698.81,444.24z"/>
							<path class="st39" d="M695.01,437.89c-0.86,0.81-1.72,1.62-2.58,2.44c-1.69-1.26-4.05-1.61-5.02-3.85
								c0.92-0.47,1.84-0.94,2.75-1.41C691.78,436.01,693.39,436.95,695.01,437.89z"/>
							<path class="st40" d="M674.91,428.85c0.48-0.93,0.95-1.87,1.43-2.8c1.78,0,2.94,0.96,3.71,2.51c0.7,1.53-0.11,2.3-1.38,2.83
								C676.94,431.29,675.67,430.46,674.91,428.85z"/>
							<path class="st41" d="M703.93,443.97c1.71,1.24,4,1.71,5.03,3.88c0.7,0.95,0.65,1.89-0.07,2.8c-2.13-1.3-4.26-2.59-6.39-3.89
								C702.57,445.62,702.7,444.5,703.93,443.97z"/>
							<path class="st42" d="M703.93,443.97c-0.47,0.93-0.95,1.86-1.42,2.79c-1.23-0.84-2.46-1.68-3.7-2.53
								c0.46-0.93,0.91-1.87,1.37-2.8C701.42,442.28,702.68,443.13,703.93,443.97z"/>
							<path class="st43" d="M713.87,450.7c1.72,1.21,3.43,2.42,5.15,3.62c0.32,1.27-0.14,1.74-1.39,1.42
								c-2.13-0.02-3.3-1.83-4.94-2.77C712.15,451.7,712.85,451.12,713.87,450.7z"/>
							<path class="st44" d="M713.87,450.7c-0.39,0.76-0.78,1.51-1.17,2.27c-1.27-0.77-2.54-1.54-3.81-2.31
								c0.02-0.93,0.05-1.87,0.07-2.8C711.09,447.92,712.26,449.71,713.87,450.7z"/>
							<path class="st45" d="M727.77,462.18c-2.62-0.43-4.41-2.28-6.36-3.86c0.13-0.81,0.59-1.3,1.39-1.43
								c1.78,1.14,3.98,1.72,5.02,3.87c0.31,0.33,0.41,0.64,0.29,0.96C727.99,462.02,727.87,462.18,727.77,462.18z"/>
							<path class="st46" d="M727.77,462.18c0.01-0.47,0.03-0.95,0.04-1.42c2.61,0.44,4.39,2.28,6.29,3.91
								c-0.07,0.81-0.79,0.9-1.29,1.23C730.92,464.94,728.79,464.34,727.77,462.18z"/>
							<path class="st47" d="M744.12,472.4c-2.62-0.39-4.43-2.18-6.31-3.83c0.04-0.82,0.77-0.93,1.26-1.29
								c2.16,1.63,4.86,2.57,6.32,5.11C744.96,472.96,744.54,472.99,744.12,472.4z"/>
							<path class="st48" d="M678.67,431.4c0.46-0.94,0.92-1.89,1.38-2.83c1.8,0.08,3.03,1.03,3.83,2.64
								c-0.93,0.47-1.85,0.95-2.78,1.43C680.16,432.5,679.15,432.49,678.67,431.4z"/>
							<path class="st49" d="M722.79,456.89c-0.46,0.48-0.93,0.95-1.39,1.43c-1.73-0.14-2.97-1.01-3.76-2.58
								c0.46-0.47,0.92-0.94,1.38-1.41C720.28,455.18,721.54,456.03,722.79,456.89z"/>
							<path class="st50" d="M739.06,467.28c-0.42,0.43-0.84,0.86-1.26,1.29c-2.08-0.07-3.35-1.75-5-2.67
								c0.43-0.41,0.86-0.82,1.29-1.23C735.75,465.54,737.41,466.41,739.06,467.28z"/>
							<path class="st51" d="M744.12,472.4c0.42,0,0.84-0.01,1.26-0.01c1.5,0.18,2.8,0.62,3.3,2.5
								C746.19,475.58,745.16,473.97,744.12,472.4z"/>
							<path class="st34" d="M661.32,437.7c0.66-3.98,2.49-0.62,3.68-0.49c0.99,0.11,2.04,0.74,2.88-0.01
								c1.37-1.22-0.12-2.26-0.51-3.28c-1.25-3.21-4.65-5.25-4.79-9.09c6.24,5.6,10.48,12.83,16.05,20.05
								C671.49,444.34,666.87,439.83,661.32,437.7z"/>
						</g>
					</g>
					<g>
						<defs>
							<path id="SVGID_9_" d="M623.7,284.33L750.32,400.7L621.21,289.84l1.99-2.26C623.99,286.68,624.15,285.39,623.7,284.33z"/>
						</defs>
						<use xlink:href="#SVGID_9_"  style="overflow:visible;fill-rule:evenodd;clip-rule:evenodd;fill:#FFFFFF;"/>
						<clipPath id="SVGID_10_">
							<use xlink:href="#SVGID_9_"  style="overflow:visible;"/>
						</clipPath>
					</g>
					<g>
						<defs>
							<polygon id="SVGID_11_" points="612.73,299.47 672.38,355.11 609.27,303.4 							"/>
						</defs>
						<use xlink:href="#SVGID_11_"  style="overflow:visible;fill-rule:evenodd;clip-rule:evenodd;fill:#FFFFFF;"/>
						<clipPath id="SVGID_12_">
							<use xlink:href="#SVGID_11_"  style="overflow:visible;"/>
						</clipPath>
					</g>
				</g>
			</g>
			<g>
				<path class="st5" d="M634.75,345.18c18.36,0.02,34.1,14.77,35.99,34.56c1.07,11.19-2.51,21.73-9.06,29.5
					C676.88,380.03,659.92,349.17,634.75,345.18z"/>
				<g>
					<path class="st5" d="M523.06,140.7c7.65,4.5,21.05,16.66,21.05,16.65l62.24,50.17l-49.38-33.22L523.06,140.7L523.06,140.7z
						 M556.96,174.29l-33.9-33.6c57.24,46.76,49.06,137.35-24.47,153.4c36.47-5.71,65.31-32.55,69.55-68.82
						C570.25,207.25,565.96,189.58,556.96,174.29L556.96,174.29z M669.69,255.37c-8.37-6.35-59.1-43.01-60.08-45.39
						C610.34,208.62,667.21,253.41,669.69,255.37z"/>
				</g>
				<path class="st5" d="M369.62,114.04c17,3.48,28.99,15.43,27.28,27.81c-0.96,7-6.11,12.73-13.53,16.21
					C402.53,143.18,392.22,121.22,369.62,114.04z"/>
			</g>
		</g>
	</g>
</g>
</svg>